<svg xmlns="http://www.w3.org/2000/svg" version="1.1" viewBox="310 245 345 345">
  <path d="M0 0 C13.09670029 12.4297387 22.30439281 28.8881529 26.09375 46.52734375 C26.39925781 47.75904297 26.39925781 47.75904297 26.7109375 49.015625 C28.01491864 54.90140291 28.32589596 60.70791909 28.40625 66.71484375 C28.42389404 67.4632251 28.44153809 68.21160645 28.4597168 68.98266602 C28.45224715 75.1369752 27.4211261 80.79565733 23.33984375 85.5859375 C22.74300781 86.04097656 22.14617187 86.49601562 21.53125 86.96484375 C20.93183594 87.43792969 20.33242188 87.91101563 19.71484375 88.3984375 C16.18972422 90.85327977 13.61313956 90.65205706 9.33500671 90.6519165 C8.28039481 90.65403173 8.28039481 90.65403173 7.20447761 90.65618968 C4.83641251 90.65985445 2.46840686 90.65650099 0.1003418 90.65332031 C-1.59312487 90.65471463 -3.28659118 90.65661365 -4.98005676 90.65898132 C-8.63485812 90.66348549 -12.28964823 90.66533457 -15.94445229 90.66544342 C-21.73246228 90.66658309 -27.52040837 90.67941878 -33.30839539 90.69500732 C-34.28529101 90.69758018 -35.26218664 90.70015303 -36.26868516 90.70280385 C-38.26694557 90.70807091 -40.26520593 90.71335639 -42.26346624 90.71865988 C-55.7405137 90.75374763 -69.21748316 90.78032871 -82.69458008 90.77783203 C-91.7807175 90.77623926 -100.86663805 90.79238145 -109.95270604 90.82853866 C-114.75818186 90.84694054 -119.56329594 90.85639276 -124.36879921 90.84406281 C-128.89897139 90.83255349 -133.42849881 90.8444981 -137.95858574 90.87369728 C-139.61243656 90.88029185 -141.26634727 90.87855085 -142.92017365 90.86739922 C-158.59627758 90.77055377 -171.62160869 94.59670956 -183.16015625 105.6953125 C-193.58093411 116.8453529 -196.81894952 129.40296619 -196.37890625 144.3671875 C-195.59422546 156.1330279 -190.56918772 167.43295807 -181.90625 175.52734375 C-178.40500464 178.24120259 -174.85762817 180.52677193 -170.90625 182.52734375 C-170.29828362 182.86110268 -169.69031725 183.1948616 -169.06392765 183.53873444 C-160.54420921 187.63162927 -151.68981265 187.07190263 -142.47241211 187.00976562 C-140.61363946 187.01195431 -138.7548682 187.01595534 -136.89610291 187.0216217 C-132.90957795 187.03015545 -128.92332289 187.02644733 -124.93681145 187.01319885 C-118.62832269 186.99278958 -112.32010346 187.0028705 -106.01161194 187.01745605 C-92.62230017 187.0441626 -79.23307695 187.03748924 -65.84375 187.02734375 C-51.38331368 187.0163887 -36.92301714 187.011195 -22.46260458 187.04463816 C-16.19613564 187.05798797 -9.93007389 187.05208609 -3.66362941 187.03127289 C0.23845027 187.02227002 4.14037389 187.02977592 8.04244041 187.0416851 C9.84635067 187.04381074 11.65028434 187.03912491 13.45415497 187.02697945 C23.95790183 186.9602646 32.60992648 186.976937 41.03125 193.96484375 C45.05323378 198.9618539 45.54538367 203.55300147 45.40234375 209.8046875 C44.9153315 214.10149179 43.80623151 216.11935416 41.09375 219.52734375 C37.51097793 222.32040968 34.7329397 223.52734375 30.09375 223.52734375 C29.87460937 222.83769531 29.65546875 222.14804687 29.4296875 221.4375 C26.02676711 211.35323592 21.23830594 202.45655583 12.09375 196.52734375 C7.84437955 194.58391129 3.52749539 192.99515002 -0.90625 191.52734375 C-1.89625 191.19734375 -2.88625 190.86734375 -3.90625 190.52734375 C-13.42849182 189.26252985 -20.98139804 192.78079169 -29.15625 197.33984375 C-38.31987058 204.62908739 -43.94895187 211.78355494 -45.90625 223.52734375 C-67.68625 223.52734375 -89.46625 223.52734375 -111.90625 223.52734375 C-113.22625 219.56734375 -114.54625 215.60734375 -115.90625 211.52734375 C-122.88027819 199.76721778 -131.7874921 194.23960618 -144.90625 190.52734375 C-154.60136409 188.8622549 -163.66647613 192.1197085 -171.77734375 197.39453125 C-177.99202049 202.14095598 -182.72329698 207.29335962 -185.90625 214.52734375 C-197.96057245 212.6760691 -208.83836053 200.78824161 -215.8984375 191.484375 C-229.77278791 171.05074998 -235.22417694 147.6388568 -231.27734375 123.08203125 C-226.91466146 101.1476533 -212.57336674 80.95711143 -194.46875 68.27734375 C-192.96323416 67.33573137 -191.44138007 66.41986123 -189.90625 65.52734375 C-189.02710938 65.01429688 -188.14796875 64.50125 -187.2421875 63.97265625 C-174.39377784 57.01165803 -161.30828661 54.91216719 -146.87109375 55.07324219 C-145.45003288 55.07437479 -144.02896968 55.07372879 -142.60791016 55.07147217 C-138.80711249 55.07034015 -135.00683588 55.09359912 -131.20615768 55.121768 C-127.21306866 55.14703869 -123.21996329 55.14914361 -119.22680664 55.15386963 C-111.69070838 55.16622494 -104.15484654 55.19894389 -96.61885166 55.23926759 C-88.02859298 55.28421937 -79.43832209 55.30603074 -70.84797478 55.32604933 C-53.20059993 55.36768462 -35.55344408 55.43788919 -17.90625 55.52734375 C-18.21685495 53.91879295 -18.53050901 52.3108307 -18.84545898 50.703125 C-19.10696999 49.35988159 -19.10696999 49.35988159 -19.37376404 47.98950195 C-21.68642653 37.29599763 -29.55740893 28.37472501 -38.28125 22.15234375 C-50.89519854 14.35422845 -67.14865165 12.08347321 -81.5859375 15.36328125 C-97.9007222 21.19278466 -106.76243918 31.59702391 -114.90625 46.52734375 C-129.42625 46.52734375 -143.94625 46.52734375 -158.90625 46.52734375 C-156.82250352 38.88694 -154.94781711 32.80500192 -151.28125 26.02734375 C-150.84176025 25.20637207 -150.40227051 24.38540039 -149.94946289 23.53955078 C-146.264542 16.83668696 -142.1489159 11.12512784 -136.90625 5.52734375 C-136.23464844 4.76550781 -135.56304687 4.00367188 -134.87109375 3.21875 C-99.34418967 -35.09718206 -37.94658899 -32.28520273 0 0 Z " fill="#4CB7AF" transform="translate(605.90625,329.47265625)"/>
  <path d="M0 0 C13.09670029 12.4297387 22.30439281 28.8881529 26.09375 46.52734375 C26.39925781 47.75904297 26.39925781 47.75904297 26.7109375 49.015625 C28.01491864 54.90140291 28.32589596 60.70791909 28.40625 66.71484375 C28.42389404 67.4632251 28.44153809 68.21160645 28.4597168 68.98266602 C28.45224715 75.1369752 27.4211261 80.79565733 23.33984375 85.5859375 C22.74300781 86.04097656 22.14617187 86.49601562 21.53125 86.96484375 C20.93183594 87.43792969 20.33242188 87.91101563 19.71484375 88.3984375 C16.70684135 90.49316688 14.81662296 90.64981388 11.18505859 90.64086914 C10.16415131 90.64079361 9.14324402 90.64071808 8.09140015 90.64064026 C6.43353989 90.63289833 6.43353989 90.63289833 4.7421875 90.625 C3.6130191 90.62358505 2.48385071 90.6221701 1.32046509 90.62071228 C-2.29679988 90.61510119 -5.91400364 90.60254678 -9.53125 90.58984375 C-11.97916577 90.58483018 -14.42708252 90.58026703 -16.875 90.57617188 C-22.88543766 90.56512815 -28.89583946 90.54837919 -34.90625 90.52734375 C-30.1640625 86.69628906 -30.1640625 86.69628906 -27.84375 85.17578125 C-22.0960542 81.39806183 -19.00042183 77.09232894 -16.90625 70.52734375 C-16.38593016 67.09870983 -16.52358066 63.96626558 -16.90625 60.52734375 C-17.06673828 59.06941406 -17.06673828 59.06941406 -17.23046875 57.58203125 C-19.2470565 43.11440171 -25.35384121 32.77956652 -36.45703125 23.31640625 C-48.42718948 14.57265431 -63.50693162 12.97739465 -77.90625 14.52734375 C-90.60737719 17.43858292 -101.10498717 25.27862592 -108.90625 35.52734375 C-110.88625 39.15734375 -112.86625 42.78734375 -114.90625 46.52734375 C-129.42625 46.52734375 -143.94625 46.52734375 -158.90625 46.52734375 C-156.82250352 38.88694 -154.94781711 32.80500192 -151.28125 26.02734375 C-150.84176025 25.20637207 -150.40227051 24.38540039 -149.94946289 23.53955078 C-146.264542 16.83668696 -142.1489159 11.12512784 -136.90625 5.52734375 C-136.23464844 4.76550781 -135.56304687 4.00367188 -134.87109375 3.21875 C-99.34418967 -35.09718206 -37.94658899 -32.28520273 0 0 Z " fill="#306CCE" transform="translate(605.90625,329.47265625)"/>
  <path d="M0 0 C14.52 0 29.04 0 44 0 C45.98 3.63 47.96 7.26 50 11 C57.14008316 21.38176475 69.7655951 27.38011707 81.8125 29.75 C83.20616383 29.86400113 84.60286466 29.94248499 86 30 C87.57587891 30.07734375 87.57587891 30.07734375 89.18359375 30.15625 C97.27310657 30.36889875 104.31437192 29.52425168 112 27 C112.97582031 26.68289063 113.95164062 26.36578125 114.95703125 26.0390625 C123.79537203 22.77246735 133.67137824 16.99293264 139 9 C142.84612073 10.57859826 145.24153346 13.02655255 148.1328125 15.97265625 C148.61072235 16.45576767 149.0886322 16.93887909 149.58102417 17.43663025 C151.10053614 18.97389041 152.6131639 20.51769326 154.125 22.0625 C155.64484559 23.60997477 157.16613419 25.15595926 158.69039917 26.69908142 C160.06918742 28.09570801 161.44316065 29.49708323 162.81689453 30.89868164 C164.81680452 33.03259545 164.81680452 33.03259545 167 34 C160.9116044 47.58641975 143.0502547 56.38195313 130 62 C125.71453899 63.56546521 121.42819503 64.90334607 117 66 C116.28851807 66.17732666 115.57703613 66.35465332 114.84399414 66.53735352 C107.86113553 68.12145077 101.07992019 68.34691642 93.9375 68.3125 C92.75027344 68.30831055 91.56304688 68.30412109 90.33984375 68.29980469 C65.24197803 67.97926129 43.69176888 59.95813096 25 43 C24.36964844 42.45085937 23.73929687 41.90171875 23.08984375 41.3359375 C11.16685686 30.30921158 4.18958243 15.36180223 0 0 Z " fill="#1E4BA0" transform="translate(449,430)"/>
  <path d="M0 0 C4.58624537 1.67239241 9.30778841 2.91282129 14.00244141 4.24194336 C49.54663191 14.54558327 49.54663191 14.54558327 60.02978516 31.54663086 C64.10802599 39.06495259 66.0007884 46.48518153 67.37744141 54.86694336 C67.52391113 55.7397998 67.67038086 56.61265625 67.82128906 57.51196289 C69.06243274 64.95505246 70.2276189 72.40927657 71.37744141 79.86694336 C71.63509277 81.53418457 71.63509277 81.53418457 71.89794922 83.23510742 C72.58119339 87.66011061 73.26348224 92.08524188 73.9387207 96.51147461 C74.70266059 101.51651917 75.47739598 106.51886183 76.29541016 111.51538086 C76.43648193 112.38243652 76.57755371 113.24949219 76.72290039 114.14282227 C76.98269682 115.73170397 77.24621352 117.31998434 77.5144043 118.9074707 C77.83732065 120.88853867 78.10950168 122.87769386 78.37744141 124.86694336 C78.64234375 126.4621582 78.64234375 126.4621582 78.91259766 128.08959961 C78.37744141 130.86694336 78.37744141 130.86694336 75.26416016 133.25366211 C73.87404656 134.03790203 72.4735158 134.8038661 71.06494141 135.55444336 C64.12670921 139.5241017 58.89928388 143.83467126 53.51416016 149.71459961 C51.37744141 151.86694336 51.37744141 151.86694336 48.37744141 152.86694336 C47.36414398 147.86954468 46.3671363 142.8690582 45.37744141 137.86694336 C45.22559387 137.09962387 45.07374634 136.33230438 44.91729736 135.54173279 C42.06752287 121.06026596 39.67908545 106.53396097 37.45019531 91.94555664 C35.93454297 82.05838781 34.35170578 72.18817638 32.40869141 62.37475586 C32.26500122 61.60316132 32.12131104 60.83156677 31.9732666 60.03659058 C30.50813225 52.93633169 27.41428936 48.0512624 21.37744141 43.86694336 C13.20653647 39.42000678 4.07342187 37.28346953 -4.88012695 35.01000977 C-14.71850075 32.47247528 -20.64686481 29.26262466 -26.06005859 20.55444336 C-27.17239776 15.239934 -27.0572764 10.24368741 -24.20068359 5.51147461 C-17.39184745 -2.75854982 -9.86222611 -3.83077267 0 0 Z " fill="#1C4C9F" transform="translate(339.62255859375,253.133056640625)"/>
  <path d="M0 0 C6.55087795 3.53747409 11.11030343 8.89114435 14.9375 15.1875 C17.87085767 25.71307752 16.05470149 34.6265037 10.90234375 43.99609375 C7.21487551 49.80854368 2.06586436 52.73758526 -4.1875 55.3125 C-15.49706652 57.35193003 -23.77990995 56.18659907 -33.25 49.8125 C-39.42306879 43.49913419 -42.9923546 35.56318756 -43.375 26.75 C-43.17175461 17.93871458 -39.93125757 11.1390975 -33.9375 4.7578125 C-24.13607271 -4.13461146 -12.0325933 -5.5590581 0 0 Z " fill="#5DC5BE" transform="translate(611,532)"/>
  <path d="M0 0 C6.36735626 4.78912266 12.62145536 10.17846017 15 18 C15.93101314 27.67273655 16.23994983 37.00006432 10 45 C3.79098111 51.98964989 -2.07579567 55.31832999 -11.29296875 56.37890625 C-20.84293045 56.86838084 -27.7091434 54.73857512 -34.87109375 48.32421875 C-36.43202981 46.63093399 -37.71880605 44.91149194 -39 43 C-39.41121094 42.46375 -39.82242187 41.9275 -40.24609375 41.375 C-44.56161832 34.68519028 -44.02593403 25.64273787 -43 18 C-40.68035725 9.57659684 -35.14468907 4.18121141 -27.87109375 -0.31640625 C-19.22731941 -4.75426535 -8.65089977 -4.33900929 0 0 Z " fill="#45ACA4" transform="translate(470,532)"/>
  <path d="M0 0 C23.96552878 -0.09349368 47.93103017 -0.16400395 71.89670467 -0.20724869 C83.02470437 -0.2278628 94.15259067 -0.25596151 105.28051758 -0.30175781 C114.98104811 -0.34166068 124.68149651 -0.36744118 134.38210684 -0.37635398 C139.51723594 -0.38156285 144.65213006 -0.39378181 149.78718376 -0.42292023 C154.62413099 -0.45014375 159.46074726 -0.45843095 164.29776382 -0.45243073 C166.06942737 -0.45352786 167.8411024 -0.46144032 169.61269951 -0.4768219 C180.03849782 -0.56287412 188.58015842 -0.49731536 196.9375 6.4375 C200.95948378 11.43451015 201.45163367 16.02565772 201.30859375 22.27734375 C200.8215815 26.57414804 199.71248151 28.59201041 197 32 C193.41722793 34.79306593 190.6391897 36 186 36 C185.67128906 34.96552734 185.67128906 34.96552734 185.3359375 33.91015625 C181.93301711 23.82589217 177.14455594 14.92921208 168 9 C163.75062955 7.05656754 159.43374539 5.46780627 155 4 C154.01 3.67 153.02 3.34 152 3 C146.95063533 2.70901966 141.91385603 2.68963839 137 4 C137 3.34 137 2.68 137 2 C69.185 1.505 69.185 1.505 0 1 C0 0.67 0 0.34 0 0 Z " fill="#6FCEC7" transform="translate(450,517)"/>
  <path d="M0 0 C8.91 0 17.82 0 27 0 C27 0.33 27 0.66 27 1 C25.02966797 1.09087891 25.02966797 1.09087891 23.01953125 1.18359375 C21.28384459 1.26803256 19.54816802 1.35267888 17.8125 1.4375 C16.51602539 1.49647461 16.51602539 1.49647461 15.19335938 1.55664062 C11.04085878 1.76347016 7.05462138 2.00103531 3 3 C3 2.34 3 1.68 3 1 C2.01 0.67 1.02 0.34 0 0 Z " fill="#5AC6B7" transform="translate(584,518)"/>
  <path d="M0 0 C0 3.45917959 -0.36939427 3.82268182 -2.6875 6.1875 C-4.96755738 8.38090437 -5.64444937 8.95362383 -8.875 9.375 C-9.57625 9.25125 -10.2775 9.1275 -11 9 C-9.948125 8.1646875 -9.948125 8.1646875 -8.875 7.3125 C-5.88655739 4.90875268 -2.94059762 2.46189568 0 0 Z " fill="#346FC1" transform="translate(584,410)"/>
  <path d="M0 0 C1.32 0.66 2.64 1.32 4 2 C3.443125 2.226875 2.88625 2.45375 2.3125 2.6875 C-0.63246684 4.35896766 -2.68156544 6.55276352 -5 9 C-5.99 8.67 -6.98 8.34 -8 8 C-7.50628906 7.59007812 -7.01257813 7.18015625 -6.50390625 6.7578125 C-5.86324219 6.21898437 -5.22257813 5.68015625 -4.5625 5.125 C-3.92441406 4.59132813 -3.28632812 4.05765625 -2.62890625 3.5078125 C-0.89194996 2.0777243 -0.89194996 2.0777243 0 0 Z " fill="#3B66B8" transform="translate(588,439)"/>
</svg>